<?xml version="1.0" encoding="utf-8"?>
<!-- Generator: Adobe Illustrator 23.1.1, SVG Export Plug-In . SVG Version: 6.00 Build 0)  -->
<svg version="1.1" xmlns="http://www.w3.org/2000/svg" xmlns:xlink="http://www.w3.org/1999/xlink" x="0px" y="0px"
	 viewBox="0 0 595.3 841.9" style="enable-background:new 0 0 595.3 841.9;" xml:space="preserve">
<style type="text/css">
	.st0{display:none;}
	.st1{display:inline;}
	.st2{clip-path:url(#SVGID_2_);}
	.st3{clip-path:url(#SVGID_4_);fill:#374F9E;}
	.st4{clip-path:url(#SVGID_4_);fill:none;stroke:#374F9E;stroke-width:5;stroke-miterlimit:10;}
	.st5{clip-path:url(#SVGID_4_);fill:#4EBCC2;}
	.st6{clip-path:url(#SVGID_4_);fill:#70BE95;}
	.st7{fill:#70BE95;}
	.st8{font-family:'ModestoPoster-Regular';}
	.st9{font-size:30px;}
	.st10{clip-path:url(#SVGID_6_);fill:#70BE95;}
</style>
<g id="Warstwa_3" class="st0">
	<g id="Warstwa_1" class="st1">
	</g>
	<g id="Warstwa_2" class="st1">
	</g>
	<g id="YMczUR_1_" class="st1">
		
			<image style="overflow:visible;" width="626" height="626" id="YMczUR_2_" xlink:href="E9FFA35725458ECE.jpg"  transform="matrix(1 0 0 1 14.4165 46.7543)">
		</image>
	</g>
</g>
<g id="Warstwa_4">
	<g id="Kompozycja_1_1_">
		<g>
			<defs>
				<rect id="SVGID_1_" x="101.6" y="245.4" width="392.1" height="256"/>
			</defs>
			<clipPath id="SVGID_2_">
				<use xlink:href="#SVGID_1_"  style="overflow:visible;"/>
			</clipPath>
			<g class="st2">
				<defs>
					<rect id="SVGID_3_" x="101.6" y="245.4" width="392.1" height="256"/>
				</defs>
				<clipPath id="SVGID_4_">
					<use xlink:href="#SVGID_3_"  style="overflow:visible;"/>
				</clipPath>
				<path class="st3" d="M356.6,372.8c0,53.5-26.4,96.9-59,96.9c-32.6,0-59-43.4-59-96.9s26.4-96.9,59-96.9
					C330.2,275.9,356.6,319.3,356.6,372.8"/>
				<path class="st4" d="M356.6,372.8c0,53.5-26.4,96.9-59,96.9c-32.6,0-59-43.4-59-96.9s26.4-96.9,59-96.9
					C330.2,275.9,356.6,319.3,356.6,372.8z"/>
				<path class="st5" d="M336.8,374.7c0,39.6-17.6,71.6-39.2,71.6c-21.7,0-39.2-32.1-39.2-71.6s17.5-71.6,39.2-71.6
					C319.2,303,336.8,335.1,336.8,374.7"/>
				<path class="st3" d="M281.6,245.4c-8.4,0.1-16.8,4.6-20.6,12.3c-3.6,7.4-2.7,16.4,2.7,22.8c2.2,2.6,5,4.7,8.1,6.2
					c1.2,0.6,2.7,0.3,3.4-0.9c0.6-1.1,0.3-2.8-0.9-3.4c-5.4-2.6-10-7.3-10.4-13.7c-0.2-3,0.2-5.1,1.3-8c0.1-0.3-0.2,0.4,0,0.1
					c0-0.1,0.1-0.2,0.1-0.3c0.1-0.3,0.3-0.5,0.4-0.8c0.3-0.6,0.7-1.3,1.1-1.9c0.9-1.4,2.2-2.6,3.5-3.6c3.3-2.5,7.4-3.7,11.3-3.8
					C284.8,250.4,284.8,245.4,281.6,245.4"/>
				<path class="st3" d="M314.2,250.4c6.7,0.1,12.7,3.8,15.7,9.9c0.2,0.4-0.1-0.3,0.1,0.3c0.1,0.2,0.1,0.3,0.2,0.5
					c0.2,0.6,0.4,1.3,0.6,1.9c0.1,0.4,0.2,0.8,0.3,1.3c0,0.1,0.1,0.9,0.1,0.4c0.1,0.8,0.1,1.6,0.1,2.5c0,3.8-1.3,7.4-3.8,10.2
					c-1.8,2.1-3.8,3.5-6.3,4.8c-2.9,1.4-0.4,5.7,2.5,4.3c7-3.4,11.9-10,12.5-17.8c0.6-7.2-2.5-14.3-8.3-18.7
					c-3.9-3-8.8-4.6-13.7-4.6C311,245.4,311,250.4,314.2,250.4"/>
				<path class="st3" d="M287.1,250.4c1.3,2.4,2.7,4.7,4.4,6.8c1.9,2.6,3.9,5,6.6,6.9c1.8,1.3,3.7,2.1,4.6,4.2
					c1,2.4,0.9,5.1,0.6,7.6c-0.2,1.3,1.3,2.5,2.5,2.5c1.5,0,2.3-1.2,2.5-2.5c0.4-2.8,0.3-5.8-0.6-8.5c-1-2.9-2.8-4.8-5.3-6.5
					c-2.5-1.6-4.4-3.5-6.3-5.8c-1.8-2.3-3.3-4.7-4.7-7.2C289.9,245.1,285.5,247.6,287.1,250.4"/>
				<path class="st3" d="M302.1,247.9c-1.4,2.5-2.9,4.9-4.6,7.1c-1.9,2.4-3.8,4.3-6.3,5.9c-2.5,1.6-4.2,3.5-5.2,6.3
					c-1,2.8-1.1,5.8-0.7,8.7c0.2,1.3,1,2.5,2.5,2.5c1.2,0,2.7-1.2,2.5-2.5c-0.3-2.5-0.4-5.1,0.6-7.5c0.9-2.2,2.8-3,4.7-4.3
					c2.6-1.8,4.6-4.2,6.4-6.7c1.7-2.2,3.2-4.6,4.5-7C308,247.6,303.7,245.1,302.1,247.9"/>
				<path class="st3" d="M313.6,501.2c8.4-0.2,16.8-4.7,20.5-12.4c3.5-7.5,2.6-16.4-2.8-22.7c-2.2-2.6-5.1-4.7-8.1-6.1
					c-1.2-0.6-2.7-0.3-3.4,0.9c-0.6,1.1-0.3,2.8,0.9,3.4c5.4,2.5,10,7.2,10.5,13.6c0.2,3-0.1,5.1-1.2,8c-0.1,0.3,0.2-0.4,0-0.1
					c0,0.1-0.1,0.2-0.1,0.3c-0.1,0.3-0.3,0.6-0.4,0.8c-0.3,0.6-0.7,1.3-1.1,1.9c-0.9,1.4-2.1,2.6-3.5,3.6c-3.3,2.5-7.3,3.7-11.3,3.8
					C310.4,496.3,310.4,501.3,313.6,501.2"/>
				<path class="st3" d="M281,496.4c-6.6,0-12.8-3.6-15.7-9.8c-0.1-0.1-0.1-0.3-0.2-0.4c0,0.1,0.2,0.5,0,0.1
					c-0.1-0.2-0.1-0.3-0.2-0.5c-0.2-0.6-0.4-1.3-0.6-1.9c-0.1-0.4-0.2-0.8-0.3-1.3c0-0.1-0.1-0.9-0.1-0.4c-0.1-0.8-0.2-1.6-0.2-2.5
					c0-3.8,1.2-7.4,3.7-10.3c1.9-2.1,3.8-3.6,6.3-4.8c2.9-1.4,0.3-5.8-2.5-4.3c-6.9,3.5-11.9,10.1-12.4,17.9
					c-0.5,7.2,2.6,14.3,8.4,18.7c3.9,3,8.8,4.5,13.7,4.5C284.2,501.4,284.3,496.4,281,496.4"/>
				<path class="st3" d="M308.1,496.3c-1.3-2.4-2.8-4.6-4.4-6.8c-1.9-2.5-4-5-6.6-6.8c-1.8-1.2-3.8-2.1-4.7-4.2
					c-1-2.4-1-5.1-0.7-7.6c0.2-1.3-1.3-2.5-2.5-2.5c-1.5,0-2.3,1.2-2.5,2.5c-0.3,2.8-0.3,5.8,0.7,8.5c1,2.9,2.8,4.8,5.3,6.4
					c1,0.7,2.1,1.3,3,2.1c1.2,1.1,2.3,2.4,3.3,3.7c1.8,2.2,3.3,4.7,4.7,7.2C305.4,501.6,309.7,499.1,308.1,496.3"/>
				<path class="st3" d="M293.1,498.9c1.4-2.5,2.9-4.9,4.6-7.2c1.8-2.4,3.7-4.3,6.2-5.9c2.5-1.6,4.2-3.5,5.2-6.3
					c1-2.8,1-5.8,0.6-8.7c-0.2-1.3-1-2.5-2.5-2.5c-1.2,0-2.7,1.2-2.5,2.5c0.3,2.5,0.4,5.1-0.5,7.5c-0.9,2.2-2.8,3.1-4.6,4.4
					c-2.6,1.8-4.5,4.2-6.4,6.7c-1.7,2.2-3.1,4.6-4.5,7C287.3,499.2,291.6,501.7,293.1,498.9"/>
				<path class="st6" d="M350.9,280.5c0,5.2-2.3,9.2-2.6,11c-0.2,1.2-2.6-5.8-2.6-11c0-5.2,2.2-12.6,2.6-11.4
					C349,270.8,350.9,275.3,350.9,280.5"/>
				<path class="st6" d="M359.5,280.6c-1.1,0-5,2.6-11.3,2.6c-6.2,0-12.3-2.4-11.3-2.6c2.8-0.5,5-2.6,11.3-2.6
					C354.4,278,361.5,280.6,359.5,280.6"/>
				<path class="st6" d="M350.9,280.5c0,5.2-2.3,9.2-2.6,11c-0.2,1.2-2.6-5.8-2.6-11c0-5.2,2.2-12.6,2.6-11.4
					C349,270.8,350.9,275.3,350.9,280.5"/>
				<path class="st6" d="M359.5,280.6c-1.1,0-5,2.6-11.3,2.6c-6.2,0-12.3-2.4-11.3-2.6c2.8-0.5,5-2.6,11.3-2.6
					C354.4,278,361.5,280.6,359.5,280.6"/>
				<path class="st6" d="M350.9,280.5c0,5.2-2.3,9.2-2.6,11c-0.2,1.2-2.6-5.8-2.6-11c0-5.2,2.2-12.6,2.6-11.4
					C349,270.8,350.9,275.3,350.9,280.5"/>
				<path class="st6" d="M359.5,280.6c-1.1,0-5,2.6-11.3,2.6c-6.2,0-12.3-2.4-11.3-2.6c2.8-0.5,5-2.6,11.3-2.6
					C354.4,278,361.5,280.6,359.5,280.6"/>
				<path class="st3" d="M298.5,314.8c-3.4,4.8-6.8,9.7-10.2,14.5c-5.4,7.7-10.8,15.4-16.2,23.1c-1.2,1.8-2.5,3.5-3.7,5.3
					c-0.8,1.1-0.2,2.8,0.9,3.4c1.2,0.7,2.6,0.2,3.4-0.9c3.4-4.8,6.8-9.7,10.2-14.5c5.4-7.7,10.8-15.4,16.2-23.1
					c1.2-1.8,2.5-3.5,3.7-5.3c0.8-1.1,0.2-2.8-0.9-3.4C300.7,313.2,299.3,313.7,298.5,314.8"/>
				<path class="st3" d="M301.1,327.5c-6.1,8.7-12.1,17.3-18.2,26c-0.9,1.2-1.7,2.5-2.6,3.7c-0.8,1.1-0.2,2.8,0.9,3.4
					c1.2,0.7,2.6,0.2,3.4-0.9c6.1-8.7,12.1-17.3,18.2-26c0.9-1.2,1.7-2.5,2.6-3.7c0.8-1.1,0.2-2.8-0.9-3.4
					C303.3,325.9,301.9,326.4,301.1,327.5"/>
				<path class="st6" d="M366.8,401.2v11l-34.1,44.9c1.5,0.5,9.1,2.8,14.4-0.2c0.5-0.3,1.1-0.7,1.6-1.2c0.4-0.2,1.4-0.9,1.8-2.1
					c0.5-1.5-0.3-2.8-0.4-3.1c-0.1-0.7-0.2-1.4-0.3-2.1c5.7-0.1,11.4-0.2,17-0.2v23.2h-60.1v-10.5l35-46.2
					c-1.5-0.1-10.3-0.7-14.8,0.4c-2.3,0.6-2.9,1.4-3,1.6c-0.4,0.8-0.1,1.6,0,2c0.5,1.3,0.8,3.3,0,6.1h-16.1v-23.6H366.8z"/>
			</g>
			<g class="st2">
				<text transform="matrix(1 0 0 1 171.5566 298.9141)" class="st7 st8 st9">THE </text>
			</g>
			<g class="st2">
				<text transform="matrix(1 0 0 1 120.7666 334.9141)"><tspan x="0" y="0" class="st7 st8 st9">W</tspan><tspan x="30" y="0" class="st7 st8 st9">ORLD </tspan></text>
			</g>
			<g class="st2">
				<text transform="matrix(1 0 0 1 192.1367 370.9141)" class="st7 st8 st9">OF</text>
			</g>
			<g class="st2">
				<defs>
					<rect id="SVGID_5_" x="101.6" y="245.4" width="392.1" height="256"/>
				</defs>
				<clipPath id="SVGID_6_">
					<use xlink:href="#SVGID_5_"  style="overflow:visible;"/>
				</clipPath>
				<path class="st10" d="M236.8,462.6c0,5.2-2.3,9.2-2.6,11c-0.2,1.2-2.6-5.8-2.6-11c0-5.2,2.2-12.6,2.6-11.4
					C234.9,452.9,236.8,457.4,236.8,462.6"/>
				<path class="st10" d="M245.3,462.7c-1.1,0-5,2.6-11.3,2.6c-6.2,0-12.3-2.4-11.3-2.6c2.8-0.5,5-2.6,11.3-2.6
					C240.3,460.2,247.3,462.7,245.3,462.7"/>
				<path class="st10" d="M236.8,462.6c0,5.2-2.3,9.2-2.6,11c-0.2,1.2-2.6-5.8-2.6-11c0-5.2,2.2-12.6,2.6-11.4
					C234.9,452.9,236.8,457.4,236.8,462.6"/>
				<path class="st10" d="M245.3,462.7c-1.1,0-5,2.6-11.3,2.6c-6.2,0-12.3-2.4-11.3-2.6c2.8-0.5,5-2.6,11.3-2.6
					C240.3,460.2,247.3,462.7,245.3,462.7"/>
				<path class="st10" d="M236.8,462.6c0,5.2-2.3,9.2-2.6,11c-0.2,1.2-2.6-5.8-2.6-11c0-5.2,2.2-12.6,2.6-11.4
					C234.9,452.9,236.8,457.4,236.8,462.6"/>
				<path class="st10" d="M245.3,462.7c-1.1,0-5,2.6-11.3,2.6c-6.2,0-12.3-2.4-11.3-2.6c2.8-0.5,5-2.6,11.3-2.6
					C240.3,460.2,247.3,462.7,245.3,462.7"/>
				<path class="st10" d="M367.5,303.2c0,5.2-2.3,9.2-2.6,11c-0.2,1.2-2.6-5.8-2.6-11c0-5.2,2.2-12.6,2.6-11.4
					C365.6,293.6,367.5,298,367.5,303.2"/>
				<path class="st10" d="M376,303.3c-1.1,0-5,2.6-11.3,2.6c-6.2,0-12.3-2.4-11.3-2.6c2.8-0.5,5-2.6,11.3-2.6
					C371,300.8,378,303.3,376,303.3"/>
				<path class="st10" d="M367.5,303.2c0,5.2-2.3,9.2-2.6,11c-0.2,1.2-2.6-5.8-2.6-11c0-5.2,2.2-12.6,2.6-11.4
					C365.6,293.6,367.5,298,367.5,303.2"/>
				<path class="st10" d="M376,303.3c-1.1,0-5,2.6-11.3,2.6c-6.2,0-12.3-2.4-11.3-2.6c2.8-0.5,5-2.6,11.3-2.6
					C371,300.8,378,303.3,376,303.3"/>
				<path class="st10" d="M367.5,303.2c0,5.2-2.3,9.2-2.6,11c-0.2,1.2-2.6-5.8-2.6-11c0-5.2,2.2-12.6,2.6-11.4
					C365.6,293.6,367.5,298,367.5,303.2"/>
				<path class="st10" d="M376,303.3c-1.1,0-5,2.6-11.3,2.6c-6.2,0-12.3-2.4-11.3-2.6c2.8-0.5,5-2.6,11.3-2.6
					C371,300.8,378,303.3,376,303.3"/>
				<path class="st10" d="M225,439.9c0,5.2-2.3,9.2-2.6,11c-0.2,1.2-2.6-5.8-2.6-11s2.2-12.6,2.6-11.4
					C223,430.2,225,434.7,225,439.9"/>
				<path class="st10" d="M233.5,440c-1.1,0-5,2.6-11.3,2.6c-6.2,0-12.3-2.4-11.3-2.6c2.8-0.5,5-2.6,11.3-2.6
					C228.4,437.4,235.5,440,233.5,440"/>
				<path class="st10" d="M225,439.9c0,5.2-2.3,9.2-2.6,11c-0.2,1.2-2.6-5.8-2.6-11s2.2-12.6,2.6-11.4
					C223,430.2,225,434.7,225,439.9"/>
				<path class="st10" d="M233.5,440c-1.1,0-5,2.6-11.3,2.6c-6.2,0-12.3-2.4-11.3-2.6c2.8-0.5,5-2.6,11.3-2.6
					C228.4,437.4,235.5,440,233.5,440"/>
				<path class="st10" d="M225,439.9c0,5.2-2.3,9.2-2.6,11c-0.2,1.2-2.6-5.8-2.6-11s2.2-12.6,2.6-11.4
					C223,430.2,225,434.7,225,439.9"/>
				<path class="st10" d="M233.5,440c-1.1,0-5,2.6-11.3,2.6c-6.2,0-12.3-2.4-11.3-2.6c2.8-0.5,5-2.6,11.3-2.6
					C228.4,437.4,235.5,440,233.5,440"/>
			</g>
		</g>
	</g>
</g>
</svg>
